<?xml version="1.0" encoding="utf-8"?>
<svg version="1.1" id="Layer_1" xmlns="http://www.w3.org/2000/svg" xmlns:xlink="http://www.w3.org/1999/xlink" x="0px" y="0px"
	 viewBox="0 0 24 24" style="enable-background:new 0 0 24 24;" xml:space="preserve">
<path d="M10.6,18L10.6,18c-0.5,0-1,0.5-1,1s0.5,1,1,1h0c0.5,0,1-0.5,1-1S11.1,18,10.6,18z M19,9.8c-0.5,0-1,0.5-1,1v0
	c0,0.5,0.5,1,1,1s1-0.5,1-1v0C20,10.2,19.5,9.8,19,9.8z M10.6,18L10.6,18c-0.5,0-1,0.5-1,1s0.5,1,1,1h0c0.5,0,1-0.5,1-1
	S11.1,18,10.6,18z M10.6,18L10.6,18c-0.5,0-1,0.5-1,1s0.5,1,1,1h0c0.5,0,1-0.5,1-1S11.1,18,10.6,18z M19,9.8c-0.5,0-1,0.5-1,1v0
	c0,0.5,0.5,1,1,1s1-0.5,1-1v0C20,10.2,19.5,9.8,19,9.8z M19,9.8c-0.5,0-1,0.5-1,1v0c0,0.5,0.5,1,1,1s1-0.5,1-1v0
	C20,10.2,19.5,9.8,19,9.8z M10.6,18L10.6,18c-0.5,0-1,0.5-1,1s0.5,1,1,1h0c0.5,0,1-0.5,1-1S11.1,18,10.6,18z M19,9.8
	c-0.5,0-1,0.5-1,1v0c0,0.5,0.5,1,1,1s1-0.5,1-1v0C20,10.2,19.5,9.8,19,9.8z M10.6,18L10.6,18c-0.5,0-1,0.5-1,1s0.5,1,1,1h0
	c0.5,0,1-0.5,1-1S11.1,18,10.6,18z M10.6,18L10.6,18c-0.5,0-1,0.5-1,1s0.5,1,1,1h0c0.5,0,1-0.5,1-1S11.1,18,10.6,18z M19,9.8
	c-0.5,0-1,0.5-1,1v0c0,0.5,0.5,1,1,1s1-0.5,1-1v0C20,10.2,19.5,9.8,19,9.8z M19,9.8c-0.5,0-1,0.5-1,1v0c0,0.5,0.5,1,1,1s1-0.5,1-1v0
	C20,10.2,19.5,9.8,19,9.8z M10.6,18L10.6,18c-0.5,0-1,0.5-1,1s0.5,1,1,1h0c0.5,0,1-0.5,1-1S11.1,18,10.6,18z M10.6,18L10.6,18
	c-0.5,0-1,0.5-1,1s0.5,1,1,1h0c0.5,0,1-0.5,1-1S11.1,18,10.6,18z"/>
<path d="M23.9,8.3c0-0.4-0.1-0.7-0.3-1.1c-0.6-1.6-2-2.8-3.7-3.1h-0.1c-0.1-0.3-0.1-0.6-0.2-0.9C19.3,2.3,18.7,1.6,18,1
	c-0.8-0.6-1.9-1-3-1H5C2.2,0,0,2.2,0,5v10c0,1.1,0.4,2.2,1,3c0.5,0.7,1.1,1.2,1.9,1.5c0.4,0.2,0.8,0.3,1.2,0.4V20
	c0.3,1.6,1.4,2.9,2.8,3.5c0.4,0.2,0.8,0.3,1.2,0.4C8.4,24,8.7,24,9,24h10c2.8,0,5-2.2,5-5V9C24,8.8,24,8.5,23.9,8.3z M22,19
	c0,0.3,0,0.6-0.1,0.8c0,0.1-0.1,0.1-0.1,0.2c-0.3,0.9-1,1.5-1.8,1.8c-0.1,0-0.3,0.1-0.4,0.1C19.4,22,19.2,22,19,22H9
	c-0.1,0-0.2,0-0.2,0c-0.8-0.1-1.5-0.4-2-1c-0.3-0.3-0.5-0.6-0.6-1h0.3c0.5,0,1-0.5,1-1s-0.5-1-1-1H5c-0.5,0-1.1-0.1-1.5-0.4
	C2.6,17.1,2,16.1,2,15V5c0-1.6,1.3-3,3-3h10c1.1,0,2.1,0.6,2.6,1.5C17.8,3.9,18,4.4,18,5v1.5c0,0.5,0.5,1,1,1s1-0.5,1-1V6.2
	c0.5,0.2,0.9,0.4,1.2,0.8C21.7,7.5,22,8.2,22,9V19z"/>
<path d="M20,14.8V15c0,0.7-0.2,1.3-0.4,1.9c-0.2,0.6-0.6,1.1-1,1.5c-0.1,0.1-0.1,0.1-0.2,0.2c-0.6,0.6-1.3,1-2.1,1.2
	C15.9,19.9,15.5,20,15,20h-0.4c-0.5,0-1-0.4-1-1c0-0.5,0.5-1,1-1H15c0.3,0,0.7-0.1,1-0.2c0.7-0.2,1.3-0.7,1.6-1.3
	c0.3-0.5,0.4-1,0.4-1.5v-0.2c0-0.5,0.5-1,1-1S20,14.3,20,14.8z"/>
</svg>
