<?xml version="1.0" encoding="utf-8"?>
<svg version="1.1" id="cursor_empty" xmlns="http://www.w3.org/2000/svg" xmlns:xlink="http://www.w3.org/1999/xlink" x="0px"
	 y="0px" viewBox="0 0 24 24" style="enable-background:new 0 0 24 24;" xml:space="preserve">
<path d="M14.9,24c-1.1,0-2.1-0.6-2.6-1.6l-2.9-6.2C9.3,16,9.2,16,9.1,16.1l-3.2,2.8c-0.4,0.4-1,0.3-1.4-0.1
	c-0.2-0.2-0.2-0.4-0.2-0.6c0,0,0-11.6,0-15.6c0-2.5,2.2-3.8,4.8-1.2l10.4,9.9c0.4,0.4,0.4,1,0,1.4c-0.2,0.2-0.4,0.3-0.6,0.3l-4,0.4
	c-0.1,0-0.2,0.2-0.2,0.3l2.8,6.1c0.7,1.4,0.1,3.2-1.3,3.9C15.8,23.9,15.4,24,14.9,24z M9.6,13.4c0.1,0,0.1,0,0.2,0
	c0.3,0.1,0.5,0.3,0.7,0.5l3.6,7.6c0.3,0.5,0.8,0.7,1.3,0.4s0.7-0.8,0.4-1.3l0,0L12.2,13c-0.2-0.5,0-1.1,0.5-1.3
	c0.1,0,0.2-0.1,0.3-0.1l3.1-0.3c0.2,0,0.3-0.2,0.1-0.4L7.8,2.9C6.7,1.8,6.2,2.3,6.2,3.6v12c0,0.2,0.2,0.3,0.4,0.2L9,13.6
	C9.2,13.5,9.4,13.4,9.6,13.4z"/>
</svg>
