<?xml version="1.0" encoding="utf-8"?>
<svg version="1.1" id="cursor_empty" xmlns="http://www.w3.org/2000/svg" xmlns:xlink="http://www.w3.org/1999/xlink" x="0px"
	 y="0px" viewBox="0 0 24 24" style="enable-background:new 0 0 24 24;" xml:space="preserve">
<path d="M19.5,12.7c-0.2,0.2-0.4,0.3-0.6,0.3l-4,0.4c-0.1,0-0.2,0.2-0.2,0.3l2.8,6.1c0.7,1.4,0.1,3.2-1.3,3.9
	c-0.4,0.2-0.8,0.3-1.3,0.3c-1.1,0-2.1-0.6-2.6-1.6l-2.9-6.2C9.3,16,9.2,16,9.1,16.1l-3.2,2.8c-0.4,0.4-1,0.3-1.4-0.1
	c-0.2-0.2-0.2-0.4-0.2-0.6c0,0,0-11.6,0-15.6c0-2.5,2.2-3.8,4.8-1.2l10.4,9.9C19.8,11.7,19.9,12.3,19.5,12.7z"/>
</svg>
