<?xml version="1.0" encoding="utf-8"?>
<svg version="1.1" id="split" xmlns="http://www.w3.org/2000/svg" xmlns:xlink="http://www.w3.org/1999/xlink" x="0px" y="0px"
	 viewBox="0 0 24 24" style="enable-background:new 0 0 24 24;" xml:space="preserve">
<path d="M24,9v10c0,2.8-2.2,5-5,5H9c-1.3,0-1.2-2,0-2h10c1.6,0,3-1.4,3-3V9C22,7.6,24,7.7,24,9z"/>
<path d="M22.7,2.7c-0.4-0.4-1-0.4-1.4,0l-1.4,1.4C19.5,1.8,17.5,0,15,0H5C2.2,0,0,2.2,0,5v10c0,2.5,1.8,4.5,4.1,4.9l-1.4,1.4
	c-0.4,0.4-0.4,1,0,1.4s1,0.4,1.4,0L22.7,4.1C22.9,3.9,23,3.7,23,3.4S22.9,2.9,22.7,2.7z M6,18H5c-1.7,0-3-1.3-3-3V5c0-1.6,1.3-3,3-3
	h10c1.7,0,3,1.4,3,3v1L6,18z"/>
</svg>
